<?xml version="1.0" encoding="utf-8"?>
<!-- Generator: Adobe Illustrator 21.0.0, SVG Export Plug-In . SVG Version: 6.00 Build 0)  -->
<svg version="1.2" baseProfile="tiny" id="Слой_1"
	 xmlns="http://www.w3.org/2000/svg" xmlns:xlink="http://www.w3.org/1999/xlink" x="0px" y="0px" viewBox="0 0 2551.2 1984.3"
	 xml:space="preserve">
<g>
	<g>
		<path fill="#8d8d8d" d="M568.6,885.7c38.1,1.9,74.8,31.7,89.2,68.9c-29.6-7.1-58.6-20.5-77-49.3
			C577.3,898.3,572.7,892.3,568.6,885.7z"/>
		<path fill="#8d8d8d" d="M577.3,816.2c36.8,13.2,59.7,54.7,62.7,92.7c-23.8-12.7-46.8-36.9-55.4-63.4
			C581.5,836.1,580.8,825.6,577.3,816.2z"/>
		<path fill="#8d8d8d" d="M579.8,743.8c32.7,21.7,53.7,57.8,50.2,98.8l-1.4,0C595.9,818.5,580.6,783.1,579.8,743.8z"/>
		<path fill="#8d8d8d" d="M620.5,680.7l1.2,0c19.4,32.3,31.9,76.1,16.1,114.7C613,765.1,601.9,717.6,620.5,680.7z"/>
		<path fill="#8d8d8d" d="M616.3,955.4c40.9,0.1,78.2,29.3,95.2,67.8C673.5,1015.4,632.2,996.8,616.3,955.4z"/>
		<path fill="#8d8d8d" d="M740.2,1051c-6.1,4-14.2,5.4-21.7,6.5c-36.4,5-68.1-8.1-96.9-24.3C658.9,1012.3,708.5,1026.7,740.2,1051z"
			/>
		<path fill="#8d8d8d" d="M682.1,766l1.1,2c-1.4,31.9-9.1,62.2-32,84.4c-4.9,4-8.6,9.9-12.8,12.6C634.5,824.7,646,784.3,682.1,766z"
			/>
		<path fill="#8d8d8d" d="M664.4,624.6l0.9,0c7.5,21.8,13.3,47,7.1,71.9c-2.7,14.7-9.2,27.7-16.3,40.8
			C639.8,704.4,640.2,654.3,664.4,624.6z"/>
		<path fill="#8d8d8d" d="M735.1,693.6c-12.8,27.1-34.1,57.1-61.9,70.4c-7.9,3-15.8,5.6-23.1,10.5
			C660.7,736.5,694.1,696,735.1,693.6z"/>
		<path fill="#8d8d8d" d="M657.3,859c26.6,27.7,30.3,72.9,19.5,109.5C652.3,940.1,640.5,896,657.3,859z"/>
		<path fill="#8d8d8d" d="M726.1,618.9l10.4-9.8c0.8,42.1-21,82-58.9,100.1l-0.6-0.9C683.7,674.2,695.4,640.3,726.1,618.9z"/>
		<path fill="#8d8d8d" d="M789.2,1068.1c3.6,1.7,7.7,3.3,9.8,6.5c-32.3,23.8-80.2,22.8-117.3,10.2
			C711.7,1064.3,752.7,1056.6,789.2,1068.1z"/>
		<path fill="#8d8d8d" d="M752.4,1039.9c0,2.6,0.9,5,0.5,8.2c-38.4-19.8-55.6-64.2-61.5-105.1C727.7,959.6,747.7,1001,752.4,1039.9z
			"/>
		<path fill="#8d8d8d" d="M860.2,1094.8l4.2,1c40.5-15.2,99.8-23.3,133.2,11.8c-32.3,12.9-73.3,5.3-103.1-8.7
			c-5.7-2.3-12.9-5.8-18.6-1.9c-1.2,0.9-2.7,1.2-3.4,2.7c14.2,11.6,24.4,30,39.5,39.6c-1.5,2.2-3.1,4.6-5.5,6.2
			c-22.7-6.7-20.9-36.5-43.3-43.4c-7.7,2.1-13.4,9.8-19,15.7c-7,7.9-12.5,17.4-19.4,25.1c-4.2,1.2-7.3-2.3-10.7-4.6l2-3.1
			c12.5-12.3,26.5-23.7,39.2-35.1c0.9-1.5-0.5-2.8-1.6-3.4l-5.8,0.5c-30.9,14.6-68.3,34.3-103,15.5
			C774.1,1083.8,823.3,1077.9,860.2,1094.8z"/>
		<path fill="#8d8d8d" d="M757.4,1012.7c39.6,2.3,74,32.7,90.4,69.6c-4.5,1.2-10.3-0.5-14.9-1.5c-32.1-7.8-60.7-37.2-76.1-67.2
			L757.4,1012.7z"/>
		<path fill="#8d8d8d" d="M973.2,1008.1c-13.7,42.3-58.6,66.7-96.6,75.3C892.1,1041.5,934,1016.4,973.2,1008.1z"/>
		<path fill="#8d8d8d" d="M1044.8,1066.7c3.3,2,7.2,3,9.2,5.8c-35.1,11.6-82.9,23.3-116.1-1.2
			C965.8,1047.8,1013.9,1049.2,1044.8,1066.7z"/>
		<path fill="#8d8d8d" d="M971,613.7c33.7,13.8,57.1,49.6,62.4,85.4c-33.4-11.2-58.9-49.3-63.4-84.5L971,613.7z"/>
		<path fill="#8d8d8d" d="M979.6,686.3c36.8,4.4,72.1,30.4,88.3,66.8c-36.6-5.1-72.8-28.6-88.9-66.1L979.6,686.3z"/>
		<path fill="#8d8d8d" d="M1031.6,945.2c2.4-0.9,4-4.3,6.7-4.9c2.6,44.3-21.9,83.7-58.9,102.4l-1.1-0.3
			C982.2,1003.5,997,965.3,1031.6,945.2z"/>
		<path fill="#8d8d8d" d="M1110.3,1016.7c-30,32.1-73.6,36.7-116.2,29.7C1023.4,1013.6,1068.1,1007.9,1110.3,1016.7z"/>
		<path fill="#8d8d8d" d="M1039.8,606.8c23,29.3,30.5,76.4,11.9,110.9C1029.1,688.1,1026.6,642,1039.8,606.8z"/>
		<path fill="#8d8d8d" d="M1123.1,934.5c-2.3,9.4-8.5,17.8-13.7,26.1c-19.1,30.7-50.9,45.2-81.5,52.8
			C1041.3,971.1,1085.1,944.9,1123.1,934.5z"/>
		<path fill="#8d8d8d" d="M1034.1,751.5c35.3,17.3,58.5,54.3,56,95.7C1055.3,828,1038.4,789.2,1034.1,751.5z"/>
		<path fill="#8d8d8d" d="M1068.8,839.9c9.9,18.1,11.5,44.4,6.9,66.9c-4.8,20.3-13.5,38.9-25.9,56
			C1034.7,921.4,1049.7,875,1068.8,839.9z"/>
		<path fill="#8d8d8d" d="M1078,660.1l0.9,0c24.1,31.8,25.6,83.5,8.4,119.2c-6.4-9.8-10.1-21.8-14.2-33.2
			C1064.9,720.1,1065,684,1078,660.1z"/>
		<path fill="#8d8d8d" d="M1138,872.4c8.1-2,15.9-4.7,23.9-7.1c-14.2,38.3-52.1,77.2-93.6,77.9
			C1082.1,914.4,1107.4,882.9,1138,872.4z"/>
		<path fill="#8d8d8d" d="M1108.4,826.4c8.9-11.7,20.6-21.8,32.4-29.8c2.5,43-20.6,79.6-54.9,103.9l-0.6-0.4
			C1085.4,872.1,1092.8,847.2,1108.4,826.4z"/>
		<path fill="#8d8d8d" d="M1136.9,710.4c7.6,38.6-0.5,79.9-30.4,106.1l-8.8,8.2c-5.5-28.7-0.2-59.5,12.5-83.4
			C1116.2,729.5,1126.5,719,1136.9,710.4z"/>
		<polygon fill="#8d8d8d" points="566.4,1203.8 686.5,1203.8 686.5,1235.5 603.9,1235.5 603.9,1275.1 675.4,1275.1 675.4,1304.4 
			603.9,1304.4 603.9,1375.3 566.4,1375.3 		"/>
		<path fill="#8d8d8d" d="M701,1203.8h92.1c30.6,0,50,21.4,50,47.3c0,20.2-8.1,35.3-27,43v0.5c18.4,4.8,23.7,22.8,24.9,40.1
			c0.7,10.8,0.5,31,7.2,40.6h-37.6c-4.5-10.8-4.1-27.4-6-41.1c-2.6-18-9.6-25.9-28.5-25.9h-37.6v67H701V1203.8 M738.6,1281.4h41.2
			c16.8,0,25.8-7.2,25.8-24.5c0-16.6-9.1-23.8-25.8-23.8h-41.2V1281.4z"/>
		<polygon fill="#8d8d8d" points="865,1203.8 992.8,1203.8 992.8,1235.5 902.6,1235.5 902.6,1272.2 985.3,1272.2 985.3,1301.5 
			902.6,1301.5 902.6,1343.6 994.7,1343.6 994.7,1375.3 865,1375.3 		"/>
		<path fill="#8d8d8d" d="M1010.5,1203.8h73.7c44.3,0,77.5,27.9,77.5,84.8c0,49.7-25.4,86.7-77.5,86.7h-73.7V1203.8 M1048,1343.6
			h33.5c21.8,0,42.6-13.4,42.6-51.4c0-34.6-12-56.7-49.3-56.7H1048V1343.6z"/>
		<path fill="#8d8d8d" d="M1210,1203.8h77.1c42.6,0,59.1,27.1,59.1,55c0,27.9-16.5,55-59.1,55h-39.5v61.5H1210V1203.8
			 M1247.6,1284.5h29.2c17.5,0,33-3.8,33-25.7c0-21.8-15.5-25.7-33-25.7h-29.2V1284.5z"/>
		<polygon fill="#8d8d8d" points="1363.6,1203.8 1491.4,1203.8 1491.4,1235.5 1401.2,1235.5 1401.2,1272.2 1484,1272.2 1484,1301.5 
			1401.2,1301.5 1401.2,1343.6 1493.3,1343.6 1493.3,1375.3 1363.6,1375.3 		"/>
		<path fill="#8d8d8d" d="M1509.1,1203.8h92.1c30.6,0,50,21.4,50,47.3c0,20.2-8.1,35.3-27.1,43v0.5c18.4,4.8,23.7,22.8,24.9,40.1
			c0.7,10.8,0.5,31,7.2,40.6h-37.6c-4.6-10.8-4.1-27.4-6-41.1c-2.6-18-9.6-25.9-28.5-25.9h-37.6v67h-37.6V1203.8 M1546.6,1281.4
			h41.2c16.7,0,25.8-7.2,25.8-24.5c0-16.6-9.1-23.8-25.8-23.8h-41.2V1281.4z"/>
		<path fill="#8d8d8d" d="M1671.9,1203.8h92.1c30.6,0,50,21.4,50,47.3c0,20.2-8.1,35.3-27,43v0.5c18.4,4.8,23.7,22.8,24.9,40.1
			c0.7,10.8,0.5,31,7.2,40.6h-37.5c-4.6-10.8-4.1-27.4-6-41.1c-2.6-18-9.6-25.9-28.5-25.9h-37.6v67h-37.6V1203.8 M1709.5,1281.4
			h41.2c16.8,0,25.8-7.2,25.8-24.5c0-16.6-9.1-23.8-25.8-23.8h-41.2V1281.4z"/>
		<polygon fill="#8d8d8d" points="1878.9,1308.5 1816,1203.8 1858.3,1203.8 1898.3,1271.5 1938,1203.8 1979.9,1203.8 1916.5,1309.5 
			1916.5,1375.3 1878.9,1375.3 		"/>
	</g>
</g>
</svg>
