<?xml version="1.0" encoding="utf-8"?>
<!-- Generator: Adobe Illustrator 21.0.0, SVG Export Plug-In . SVG Version: 6.00 Build 0)  -->
<svg version="1.2" baseProfile="tiny" id="Слой_1"
	 xmlns="http://www.w3.org/2000/svg" xmlns:xlink="http://www.w3.org/1999/xlink" x="0px" y="0px" viewBox="0 0 2551.2 1984.3"
	 xml:space="preserve">
<g>
	<polygon fill=" #8d8d8d" points="673,1094.7 573.1,939.6 607.8,939.6 689,1068.7 770.7,939.6 805.4,939.6 705,1094.7 812.3,1256.8 
		778,1256.8 689,1119 600.5,1256.8 565.8,1256.8 	"/>
	<polygon fill=" #8d8d8d" points="875.5,1058.4 875.5,1207.5 990.5,1058.1 1010.4,1058.1 1010.4,1256.8 983,1256.8 983,1103.5 
		865.6,1256.9 848.1,1256.9 848.1,1058.4 	"/>
	<polygon fill=" #8d8d8d" points="1116.4,1080.4 1046,1080.4 1046,1058.4 1214.3,1058.4 1214.3,1080.4 1143.9,1080.4 1143.9,1256.8 
		1116.4,1256.8 	"/>
	<g>
		<path fill=" #8d8d8d" d="M1488.5,1142.3c18.5,0,28.1-0.7,51.9-40.3c6.9-11.4,13.9-26,20.3-33.9c9.2-11.1,18.9-13.6,29-13.6
			c3.8,19.8,5.3,25.4,5.3,25.4c-8.6,1-15.9,1.8-22.4,10.2c-5.3,6.7-9.3,16.1-19.1,31.7c-13,20.7-21.9,26-34.3,30.9v0.8
			c25,9.2,30.3,26.5,36.1,39.2c10.8,23.6,12.8,26.9,16.9,33.9c4,6.8,11.1,8.4,24.6,8.5l-6.6,25.4c-26.7,0-37.1-9.2-50-40.2
			c-7.8-18.6-13.4-29.3-16.7-35.2c-9.1-16.5-15.8-20.7-31.8-20.7H1465v92.5h-27.6v-198.4h27.6v83.8H1488.5z"/>
		<path fill=" #8d8d8d" d="M1249.5,1230.4c18.1,7.6,33,8.9,45.7,8.9c60.2,0,77.2-44,78.9-73.7h-102v-20.9h102
			c-3.1-26.2-18.9-68.4-80.4-68.4c-11.3,0-25.9,1.7-44,7.9l5.6-24.1c11.2-2.1,27.4-4.7,42.8-4.7c64.1,0,103.9,40.5,103.9,102.4
			c0,72.8-56.7,102.4-105,102.4c-17.7,0-33.9-3.3-42.7-5.9L1249.5,1230.4z"/>
	</g>
</g>
<path fill=" #8d8d8d" d="M1667.4,918.8c0,31.4,17.3,58.8,42.8,73.2l1.6-0.8c8.1-4.2,16.7-7,25.6-8.4c-29.4-6.4-51.5-32.7-51.5-64
	c0-36.1,29.4-65.5,65.5-65.5c36.1,0,65.4,29.3,65.4,65.4v0.1v0.1c0,0,0,0.1,0,0.1v62.7h18.5v-62.9v-0.1c0-13.8-3.4-26.8-9.3-38.2
	c-13.9-27.1-42.1-45.7-74.7-45.7C1705,834.8,1667.4,872.4,1667.4,918.8"/>
<path fill=" #8d8d8d" d="M1940.4,995.8c-8.1,4.2-16.7,7-25.6,8.4c29.4,6.4,51.5,32.6,51.5,64c0,36.1-29.4,65.5-65.5,65.5
	c-36.1,0-65.4-29.3-65.4-65.4v-0.1v-0.1c0,0,0-0.1,0-0.1v-62.7h-18.5v62.9c0,13.8,3.3,26.8,9.3,38.2c13.9,27.1,42.1,45.7,74.7,45.7
	c46.4,0,84-37.6,84-84c0-31.4-17.3-58.8-42.9-73.2L1940.4,995.8z"/>
<path fill=" #8d8d8d" d="M1827.7,877.6l0.8,1.6c4.2,8.1,7,16.7,8.4,25.6c6.4-29.4,32.6-51.5,63.9-51.5c36.1,0,65.5,29.4,65.5,65.5
	c0,36.1-29.3,65.4-65.4,65.5h-0.1h-0.1h-0.1h-87.4v0h-61.8h-0.1c-13.8,0-26.8,3.4-38.2,9.3c-27.1,13.9-45.7,42.1-45.7,74.7
	c0,46.4,37.6,84,84,84c31.4,0,58.8-17.3,73.2-42.8l-0.8-1.6c-4.2-8.1-7-16.7-8.4-25.6c-6.4,29.4-32.7,51.5-64,51.5
	c-36.1,0-65.5-29.4-65.5-65.5c0-36.1,29.4-65.4,65.4-65.5h0.1h0.1h0.1h62.7v0h86.5h0.1c13.8,0,26.8-3.4,38.2-9.2
	c27.1-13.9,45.7-42.2,45.7-74.7c0-46.4-37.6-84-84-84C1869.5,834.8,1842.1,852.1,1827.7,877.6"/>
<path fill=" #8d8d8d" d="M1777.8,729.3c-3.5,1.1-5.4,4.9-4.2,8.3l38.8,97.2l-26.2-101.3c-0.9-2.8-3.5-4.5-6.3-4.5
	C1779.2,729,1778.5,729.1,1777.8,729.3"/>
<path fill=" #8d8d8d" d="M1866.2,733.5L1840,834.8l38.8-97.2c1.1-3.5-0.8-7.2-4.2-8.3c-0.7-0.2-1.4-0.3-2.1-0.3
	C1869.7,729,1867.1,730.7,1866.2,733.5"/>
</svg>
