<?xml version="1.0" encoding="utf-8"?>
<!-- Generator: Adobe Illustrator 21.0.0, SVG Export Plug-In . SVG Version: 6.00 Build 0)  -->
<svg version="1.2" baseProfile="tiny" id="Слой_1"
	 xmlns="http://www.w3.org/2000/svg" xmlns:xlink="http://www.w3.org/1999/xlink" x="0px" y="0px" viewBox="0 0 2551.2 1984.3"
	 xml:space="preserve">
<path fill-rule="evenodd" fill=" #8d8d8d" d="M1329.2,835.3l40.6,69.8c3,5.1,2.6,11.5-0.9,16.3c-3.6,4.9-9.4,7.9-15.4,7.2
	c-14.5-1.6-28.6-5.9-41.4-12.7c-13.1-6.9-10-25.1-8.6-39.9c0.3-3.5-0.6-7.2-2.8-10.2c-3.9-5.3-10.2-8.4-16.8-8.4h-21.1
	c-6.6,0-12.8,3.1-16.8,8.4c-2.2,3-3.2,6.6-2.8,10.2c1.4,14.8,4.5,33-8.7,39.9c-12.8,6.8-26.9,11.1-41.4,12.7
	c-6,0.6-11.8-2.4-15.4-7.2c-3.5-4.7-3.9-11.2-0.9-16.3l40.6-69.8l6.8-61.1c-6.5,8.5-17.2,13.3-28.4,11.5
	c-16.2-2.6-27.2-18-24.5-34.4l54.4,8.9l1.2-10.4c15.7-23.8,77-23.8,92.7,0l1.2,10.4l54.4-8.9c2.7,16.4-8.3,31.8-24.5,34.4
	c-11.2,1.8-21.9-3-28.3-11.5L1329.2,835.3z M1341.9,957.7c-3.2,4.3-8.2,6.9-13.6,6.9h-110c-5.4,0-10.4-2.6-13.6-6.9
	c-2.3-3.1-0.6-7.5,3.2-8.2c15.2-3.1,29.7-8.6,43-16.5c13.8-8.1,31-8.1,44.8,0c13.3,7.9,27.8,13.4,43,16.5
	C1342.5,950.2,1344.2,954.6,1341.9,957.7z M1510.4,810.4c-6.4-47.8-23.5-92.1-48.6-130.7c8.2-14.9,13-32,13-50.2
	c0-27-10.3-51.5-27.1-70c-5.9-1-12-1.6-18.2-1.6c-25.6,0-48.9,9.3-67,24.6c-4.9-3.1-9.9-6-14.9-8.8c-5.8-3.8-12-6.9-18.6-9.4
	c-0.5-0.2-1-0.5-1.6-0.8v0.2c-10.5-3.8-21.7-5.8-33.5-5.8c-7,0-13.9,23.1-20.5,24.5c-6.6-1.4-13.5-24.5-20.5-24.5
	c-11.7,0-23,2.1-33.5,5.8v-0.2c-0.5,0.2-1,0.5-1.6,0.8c-6.6,2.5-12.8,5.6-18.6,9.4c-5.1,2.8-10.1,5.7-14.9,8.8
	c-18.1-15.3-41.4-24.6-67-24.6c-6.2,0-12.3,0.6-18.2,1.6c-16.8,18.4-27.1,43-27.1,70c0,18.2,4.7,35.3,13,50.2
	c-25.1,38.6-42.2,83-48.6,130.7h26.6c-4.3,21-6.7,42.7-6.7,64.9c0,7.6,0.3,15.2,0.8,22.7h30.8c1.1,7.8,2.4,15.5,4.1,23v0
	c47,50.8,110.3,86.2,181.6,98c71.3-11.8,134.6-47.3,181.6-98v0c1.6-7.6,3-15.3,4-23h30.8c0.5-7.5,0.8-15,0.8-22.7
	c0-22.3-2.3-44-6.7-64.9H1510.4z"/>
<path fill-rule="evenodd" fill=" #8d8d8d" d="M734.7,1312.8v-11.1H799v11.1c-5.1,0.9-8.5,2.4-10,4.5c-1.6,2.1-2.3,6.5-2.3,13.2v28.7
	c-2.2-0.1-3.9-0.2-5.3-0.2c-6.7,0-18,1.7-33.9,5.2c-11.4,2.4-21,3.6-28.6,3.6c-20.9,0-37.7-7-50.6-20.9
	c-12.9-13.9-19.3-30.2-19.3-48.7c0-19.9,6.8-37,20.4-51.4c13.6-14.3,30.4-21.5,50.5-21.5c16.4,0,30.8,5.2,43.2,15.7
	c2.2-4.5,3.5-9.2,4-14.3h10.8l1.2,48h-11c-6.9-23.4-20.5-35-40.7-35c-12,0-21.2,4.4-27.5,13.3c-6.3,8.8-9.5,23.7-9.5,44.5
	c0,14.6,0.9,25.8,2.8,33.4c1.8,7.6,5.4,13.5,10.7,17.7c5.3,4.2,12.2,6.3,20.6,6.3c7.5,0,13.7-1.6,18.6-4.8c4.9-3.2,7.4-9.6,7.4-19.1
	v-5.1C750.5,1317.8,745.2,1313.4,734.7,1312.8z"/>
<path fill-rule="evenodd" fill=" #8d8d8d" d="M860,1292.1c11.4,0.1,19.1-0.6,23.1-2.1c4-1.5,7.1-4.3,9.4-8.2c2.3-3.9,3.4-9.3,3.4-16
	c0-9.6-2.3-16.3-6.8-20c-4.6-3.7-12.4-5.6-23.5-5.6c-1.4,0-3.3,0-5.6,0.1V1292.1z M860,1304.5v32.5c0,6.3,1.1,10.7,3.2,13.1
	c2.2,2.5,6.6,3.7,13.3,3.7h2.4v11.2h-74v-11.2h2.7c6.9,0,11.3-1.3,13.4-3.8c2-2.5,3.1-6.9,3.1-13v-81.2c0-6.3-1.1-10.7-3.2-13.1
	c-2.2-2.5-6.6-3.7-13.3-3.7H805v-11.2l55.1-0.1l12.3-0.1c12.2,0,21.1,0.4,26.8,1.2c5.6,0.8,11.2,2.8,16.7,5.8
	c5.5,3.1,9.8,7.3,12.9,12.6c3.1,5.3,4.7,11.1,4.7,17.2c0,16.3-9.2,27.5-27.7,33.5c4.9,3.1,12.6,12.8,23,29.2
	c8.1,12.6,13.9,20.2,17.3,22.8c3.4,2.6,7.2,3.9,11.3,3.9v11.2h-42.9c-3.9-4.7-11.2-16.5-21.8-35.4c-5.3-9.6-9.1-15.8-11.2-18.5
	c-2.2-2.8-4.4-4.5-6.6-5.3C872.5,1305,867.6,1304.5,860,1304.5z"/>
<path fill-rule="evenodd" fill=" #8d8d8d" d="M1000.7,1294.9c0,21.1,2.8,36.3,8.5,45.7c5.7,9.3,14.1,14,25.3,14
	c11.7,0,20.5-4.3,26.4-12.8c5.9-8.5,8.9-23.5,8.9-44.9c0-19.6-2.8-34.2-8.4-43.8c-5.6-9.6-14.4-14.5-26.6-14.5
	c-11.5,0-20,4.5-25.7,13.5C1003.5,1261,1000.7,1275.3,1000.7,1294.9z M958.4,1296c0-12.4,3.4-24.4,10.3-36.2
	c6.9-11.7,16.2-20.4,28-26.1c11.8-5.6,24.4-8.5,37.8-8.5c24.1,0,43.1,7,56.8,20.9c13.7,13.9,20.6,31,20.6,51.3
	c0,19.2-6.8,35.8-20.6,49.6c-13.7,13.8-32.3,20.8-55.9,20.8c-16.1,0-30.4-3.4-42.8-10.2c-12.4-6.8-21.2-16-26.5-27.5
	C961,1318.6,958.4,1307.2,958.4,1296z"/>
<path fill-rule="evenodd" fill=" #8d8d8d" d="M1171.1,1294.9c0,21.1,2.8,36.3,8.5,45.7c5.7,9.3,14.1,14,25.3,14
	c11.7,0,20.5-4.3,26.4-12.8c5.9-8.5,8.9-23.5,8.9-44.9c0-19.6-2.8-34.2-8.3-43.8c-5.6-9.6-14.4-14.5-26.6-14.5
	c-11.5,0-20,4.5-25.7,13.5C1173.9,1261,1171.1,1275.3,1171.1,1294.9z M1128.7,1296c0-12.4,3.4-24.4,10.3-36.2
	c6.9-11.7,16.2-20.4,28-26.1c11.8-5.6,24.4-8.5,37.8-8.5c24.1,0,43.1,7,56.8,20.9c13.7,13.9,20.6,31,20.6,51.3
	c0,19.2-6.8,35.8-20.5,49.6c-13.7,13.8-32.3,20.8-55.9,20.8c-16.1,0-30.4-3.4-42.8-10.2c-12.4-6.8-21.2-16-26.5-27.5
	C1131.4,1318.6,1128.7,1307.2,1128.7,1296z"/>
<path fill-rule="evenodd" fill=" #8d8d8d" d="M1373.2,1365l-51-107v71c0,6.3,0.5,11,1.3,14c0.9,3,2.9,5.5,6.1,7.6
	c3.2,2.1,7.1,3.1,11.7,3.1v11.2H1292v-11.2c4.3,0,8.1-1.1,11.2-3.4c3.2-2.3,5.1-4.9,5.8-7.8c0.7-2.9,1-7.7,1-14.1v-72.2
	c0-6.9-1.2-11.5-3.6-13.8c-2.4-2.3-7.2-3.5-14.5-3.5v-11.2h54.9l42.3,90.2l42.7-90.2h55.2v11.2h-2.7c-6.9,0-11.3,1.3-13.4,3.8
	c-2.1,2.5-3.1,6.9-3.1,13v81.2c0,6.3,1.1,10.7,3.2,13.1c2.1,2.5,6.6,3.7,13.3,3.7h3.1v11.2h-74.7v-11.2h2.7c6.8,0,11.3-1.3,13.3-3.8
	c2-2.5,3.1-6.9,3.1-13v-80.7l-50.8,108.7H1373.2z"/>
<path fill-rule="evenodd" fill=" #8d8d8d" d="M1500.2,1239v-11.2h72.6v11.2h-2.1c-6.8,0-11.2,1.3-13.3,3.8c-2,2.5-3.1,6.9-3.1,13
	v81.2c0,6.3,1.1,10.7,3.2,13.1c2.1,2.5,6.5,3.7,13.2,3.7h2.1v11.2h-72.6v-11.2c7.3,0,12.1-1.1,14.5-3.3c2.4-2.2,3.6-6.7,3.6-13.5
	v-81.2c0-6.5-1.1-11-3.4-13.3C1512.7,1240.1,1507.8,1239,1500.2,1239z"/>
<path fill-rule="evenodd" fill=" #8d8d8d" d="M1618.4,1266.8v63.1c0,10.1,1.8,16.6,5.5,19.5c3.7,2.9,8.4,4.3,14.1,4.3v11.2h-51.5
	v-11.2c4.4,0,8.2-1,11.4-3.2c3.2-2.1,5.3-4.6,6.2-7.4c0.9-2.8,1.3-7.2,1.3-13.2v-70c0-14-6.5-20.9-19.6-20.9v-11.2h46.4l75.2,84
	v-50.3c0-15-6.3-22.5-18.9-22.5v-11.2h49.3v11.2c-3.4,0-6.7,0.9-9.7,2.8c-3,1.9-5.1,4.3-6.1,7.2c-1.1,2.9-1.6,7.2-1.6,12.8v105.4
	h-13L1618.4,1266.8z"/>
<path fill-rule="evenodd" fill=" #8d8d8d" d="M1833.5,1312.8v-11.1h64.3v11.1c-5.1,0.9-8.5,2.4-10,4.5c-1.6,2.1-2.3,6.5-2.3,13.2
	v28.7c-2.2-0.1-3.9-0.2-5.3-0.2c-6.7,0-18,1.7-33.9,5.2c-11.4,2.4-21,3.6-28.7,3.6c-20.8,0-37.7-7-50.6-20.9
	c-12.9-13.9-19.3-30.2-19.3-48.7c0-19.9,6.8-37,20.4-51.4c13.6-14.3,30.4-21.5,50.6-21.5c16.4,0,30.8,5.2,43.2,15.7
	c2.2-4.5,3.5-9.2,4-14.3h10.8l1.2,48h-11c-7-23.4-20.5-35-40.7-35c-12,0-21.2,4.4-27.5,13.3c-6.3,8.8-9.5,23.7-9.5,44.5
	c0,14.6,0.9,25.8,2.8,33.4c1.8,7.6,5.4,13.5,10.7,17.7c5.3,4.2,12.2,6.3,20.6,6.3c7.5,0,13.7-1.6,18.6-4.8c4.9-3.2,7.4-9.6,7.4-19.1
	v-5.1C1849.3,1317.8,1844,1313.4,1833.5,1312.8z"/>
<rect x="1069.3" y="1129.6" fill-rule="evenodd" fill=" #8d8d8d" width="30.7" height="12.4"/>
<polygon fill-rule="evenodd" fill=" #8d8d8d" points="1165.5,1158.3 1162.5,1149.1 1159.2,1138.4 1158.6,1138.4 1158.6,1172.4 
	1144.5,1172.4 1144.5,1100.3 1157.7,1100.3 1164.9,1119.5 1169.7,1133.9 1170.3,1133.9 1175.3,1119.2 1182.4,1100.3 1195.5,1100.3 
	1195.5,1172.4 1181.5,1172.4 1181.5,1138.7 1181,1138.7 1177.6,1149.9 1174.8,1158.3 "/>
<path fill-rule="evenodd" fill=" #8d8d8d" d="M1243.9,1133.5l-1.4,11.5h6.5l-1.3-11.5l-1.6-14.6h-0.6L1243.9,1133.5z M1251,1158.3
	h-10.6l-2.2,14.1h-14.9l13.7-72.1h17.2l13.8,72.1h-14.8L1251,1158.3z"/>
<polygon fill-rule="evenodd" fill=" #8d8d8d" points="1296.2,1172.4 1296.2,1100.3 1310.3,1100.3 1310.3,1158.9 1329.3,1158.9 
	1329.3,1172.4 "/>
<polygon fill-rule="evenodd" fill=" #8d8d8d" points="1357.3,1172.4 1357.3,1100.3 1390.4,1100.3 1390.4,1113.7 1371.4,1113.7 
	1371.4,1129.1 1388,1129.1 1388,1142.6 1371.4,1142.6 1371.4,1158.9 1390.4,1158.9 1390.4,1172.4 "/>
<rect x="1446.6" y="1129.6" fill-rule="evenodd" fill=" #8d8d8d" width="30.7" height="12.4"/>
<path fill-rule="evenodd" fill=" #8d8d8d" d="M1171.3,1430c6.3,0,10.9,1.6,13.9,4.6c3,3.1,4.5,7.1,4.5,12c0,0.4,0,0.7,0,1
	c0,0.3,0,0.6-0.1,1l-13.6,2.4c-0.1-2.1-0.5-3.9-1.4-5.3c-0.9-1.4-2-2.1-3.4-2.1c-1,0-1.7,0.2-2.3,0.6c-0.6,0.4-1,0.8-1.4,1.4
	c-0.4,0.5-0.6,1.2-0.7,1.8c-0.1,0.7-0.2,1.2-0.2,1.7v36.8c0,1,0.2,1.9,0.7,2.8c0.5,0.9,1.6,1.3,3.4,1.3c1.4,0,2.5-0.6,3.3-1.9
	c0.9-1.2,1.3-3.1,1.4-5.6l13.9,1.9c-0.1,5.7-1.7,10.4-4.8,13.8c-3.1,3.5-7.6,5.2-13.5,5.2c-6.5,0-11.2-1.5-14.2-4.5
	c-3-3.1-4.5-7.6-4.5-13.7v-36.2c0-5.7,1.5-10.3,4.6-13.8C1160.2,1431.7,1164.9,1430,1171.3,1430z"/>
<polygon fill-rule="evenodd" fill=" #8d8d8d" points="1218.5,1502.7 1218.5,1430.6 1232.6,1430.6 1232.6,1489.2 1251.6,1489.2 
	1251.6,1502.7 "/>
<path fill-rule="evenodd" fill=" #8d8d8d" d="M1316.2,1430.7v54.4c0,6.2-1.6,10.8-4.7,13.8c-3.1,3-7.7,4.5-13.8,4.5
	c-12.2,0-18.3-6.1-18.3-18.2v-54.4h14.1v54.7c0,1.7,0.4,2.8,1.2,3.5c0.8,0.7,1.8,1,3,1c1.2,0,2.2-0.3,3-1c0.8-0.6,1.2-1.8,1.2-3.5
	v-54.7H1316.2z"/>
<path fill-rule="evenodd" fill=" #8d8d8d" d="M1369.1,1479.3c0-2.9-0.5-5-1.5-6.1c-1-1.2-2.5-1.8-4.5-1.8h-2.6v17.8h2.5
	c1.3,0,2.4-0.3,3.2-0.8c0.8-0.5,1.4-1.3,1.9-2.1c0.5-0.9,0.8-2,0.9-3.1C1369.1,1482,1369.1,1480.7,1369.1,1479.3z M1368.5,1451.1
	c0-2.8-0.5-4.7-1.6-5.6c-1-0.9-2.7-1.4-5-1.4h-1.4v14.3h1.8C1366.5,1458.3,1368.5,1455.9,1368.5,1451.1z M1374.1,1465
	c1.6,0.6,3,1.3,4.1,2.4c1.1,1,2,2.2,2.6,3.6c0.7,1.3,1.1,2.8,1.4,4.4c0.3,1.6,0.4,3.2,0.4,4.9c0,7.8-1.7,13.4-5.1,17.1
	c-3.4,3.6-8.4,5.4-15.1,5.4h-16v-72.1h16.3c6.4,0,11.2,1.7,14.4,5.1c3.2,3.4,4.8,8.4,4.8,15c0,1.4-0.1,2.9-0.5,4.3
	c-0.3,1.4-0.8,2.7-1.4,4c-0.6,1.2-1.4,2.3-2.4,3.3c-1,1-2.2,1.7-3.6,2.2V1465z"/>
<rect x="648.7" y="1460.1" fill-rule="evenodd" fill=" #8d8d8d" width="451.3" height="13"/>
<rect x="1446.6" y="1460.1" fill-rule="evenodd" fill=" #8d8d8d" width="451.3" height="13"/>
</svg>
