<?xml version="1.0" encoding="utf-8"?>
<!-- Generator: Adobe Illustrator 21.0.0, SVG Export Plug-In . SVG Version: 6.00 Build 0)  -->
<svg version="1.2" baseProfile="tiny" id="Слой_1"
	 xmlns="http://www.w3.org/2000/svg" xmlns:xlink="http://www.w3.org/1999/xlink" x="0px" y="0px" viewBox="0 0 2551.2 1984.3"
	 xml:space="preserve">
<g>
	<path fill=" #8d8d8d" d="M1675.2,948.3c1.7-5.3,2.1-11.3,1.1-15.8c8.7,1.3,14.8,10.9,14.5,19.1c-0.2,4.9-1.5,10.2-4,15.1
		c-6.6,12.6-16.6,29.8-28,36.2c-7.2,4-18.6,2.3-23.5-4.8c4.5-1.1,9.7-4,13.7-7.8c3.4-3.3,6.4-6.6,9-10
		C1664.9,970.2,1671.2,960.9,1675.2,948.3L1675.2,948.3z"/>
	<path fill=" #8d8d8d" d="M1335,1001.8c1.7-5.3,2.1-11.3,1.1-15.8c8.7,1.3,14.8,10.9,14.5,19.1c-0.2,4.9-1.5,10.2-4,15.1
		c-6.6,12.6-16.6,29.8-28,36.2c-4.6,2.5-9.7,3.2-15.1,1.1c-2.7-1.1-6.8-3.4-8.5-5.8c9.6-2.3,17-10.3,22.7-17.9
		C1324.7,1023.8,1331,1014.4,1335,1001.8L1335,1001.8z"/>
	<path fill=" #8d8d8d" d="M1152.8,1068.3c-4.3,4-8.5,6.8-12.7,8.4c1.7,2.6,3.9,4.5,6.7,5.9c7.8,3.9,15.3,0.2,22-6.1
		c12.3-13.1,28.9-40.7,28-53.5c-0.5-6.5-4.9-12.7-10.8-15.4c0.2,7.4-2.5,14.7-5.9,21.4C1173,1043.3,1164.5,1057.3,1152.8,1068.3
		L1152.8,1068.3z"/>
	<path fill=" #8d8d8d" d="M1662.7,959c6.9-11.5,8.1-15.6,8.3-17.8c0.5-4.1-4.7-6.2-7.6-3.2c-1.3,1.4-2.8,3.9-5.1,8.7
		c-3.3,7.1-17.4,33.5-26.2,34.5c-6.4-0.1,12.1-48.9,13-51.3c4.2-12,7.9-23.4,10.9-34c3.7-12.9,7.5-26.9-1.9-38.2
		c-9.7-11.8-21.7-2.6-30,5.4c-23,22.1-39.8,51.8-55,79.5l44.3-190.9c-10.8,5.2-21.4,10.8-32.5,15.2c-17.1,80-34.4,160-53.8,239.4
		l26.5-4.2c8.8-23.4,18.8-46.9,31.5-68.4c12.7-21.5,26.8-44.8,44.8-62.4c3.9-3.9,6.6-5.9,8.2-7c-0.6,2.5-1.8,6.8-4.3,14.1
		c-7.7,22.3-16.1,44.3-22.4,67c-3.7,13.4-7.9,31.7,5.5,41.6c3.8,2.8,7.7,4.3,11.8,4.4c0.1,0,0.2,0,0.4,0c5.5,0,10.8-3,14.7-6.7
		C1651.8,977.4,1657.1,968.2,1662.7,959L1662.7,959z"/>
	<path fill=" #8d8d8d" d="M1663.3,898.1c-5.7,19.9-12.9,39.2-19.4,58.8c8.2-7.7,10.7-25.1,19.9-27.5c2.3-0.6,5-0.4,7.2,0.5
		c4.5-13.7,11.3-30.5,10.2-45c-1.2-7.8-6.1-17.1-14.6-18.7C1669.5,876.6,1666.2,888.1,1663.3,898.1L1663.3,898.1z"/>
	<path fill=" #8d8d8d" d="M1615.9,774.8l-28.5,122.9c7.4-11.1,15.2-21.8,24-31.7l23.3-100.4C1628.4,768.5,1622.2,771.8,1615.9,774.8
		L1615.9,774.8z"/>
	<path fill=" #8d8d8d" d="M1620.7,893.8c-10.6,14-20.1,28.7-29,43.9c-10.1,17-20.3,39.1-30.3,65.7l-0.6,1.6c-0.9,2.5-3.2,4.3-5.8,4.8
		l-4.1,0.6c-0.8,3.3-1.6,6.6-2.4,9.8l26.5-4.2c7.6-20.2,16.1-40.3,26.4-59.3C1605,935,1613.4,914.4,1620.7,893.8L1620.7,893.8z"/>
	<path fill=" #8d8d8d" d="M1976.4,1016.1c-0.7-6-7.1-7.1-12.3-7.3c-4.7,5.6-20.8,11.3-71.2,22.9l-1.7,14.9c7.1-1.6,14.2-3.2,21.3-4.9
		C1977.6,1026.5,1976.5,1022.4,1976.4,1016.1L1976.4,1016.1z"/>
	<path fill=" #8d8d8d" d="M1719.6,949.7c1.5,9.8,5,12.6,13.2,8.3c-0.9-17.1,2.6-36,9.2-53.1c4.3-11.2,9.9-21.9,17.6-31.1
		c-2.3-5.4-3.9-10.9-4.8-16.7c-6,3.4-9.9,6.8-14.1,12.1C1725.8,890.6,1715.9,923.6,1719.6,949.7L1719.6,949.7z"/>
	<path fill=" #8d8d8d" d="M1814.1,873c-1.6-9.1-5.8-24.9-16.8-26.8c1.3,3.6,2.3,7.5,3,11.9c0,0.1,0,0.3,0,0.4
		c3,25.2-2.2,51.2-15.4,77.3c-11.7,23.1-33.8,48.5-61.8,49.9c5.1,3.9,11.1,6.1,18,6.3c26.3,0.6,47.6-24.7,58.3-45.8
		C1812,921.3,1816.9,896.8,1814.1,873L1814.1,873z"/>
	<path fill=" #8d8d8d" d="M1617.5,885.6c0,0-0.1,0.1-0.1,0.1c0.1-0.1,0.1-0.2,0.2-0.2C1617.5,885.6,1617.5,885.6,1617.5,885.6
		L1617.5,885.6z"/>
	<path fill=" #8d8d8d" d="M728.1,905.7c-9-6.3-19.7-8.4-30.5-8.4c-40.7,0-77.4,24.6-89.2,64.5c-12.7,42.3,13.4,94.3,46.3,120.1
		c-4.5-5.5-8.4-11.4-11.8-17.5c-20.2-36.7-27.2-83.8,0.1-119.3c16.1-22.7,38.1-34,65.3-38.3C715.4,905.8,722,905.5,728.1,905.7
		L728.1,905.7z"/>
	<path fill=" #8d8d8d" d="M796.7,941.1c2.7,17.4,0.7,36.1-6.1,55.4c-6,17.2-16,37.6-29.6,60.8c-4.5,10.2-9.1,19.7-13.8,28.6
		c6.9-7.7,14.5-17,22.7-28c9.9-13.8,20-29.9,30-47.9c5.7-10.2,11.3-20.4,16.9-30.6c0.5-7.3,0.3-14.5-0.8-21.4
		c-4-20.5-14.5-36.3-31.5-47.1C790.3,919.6,794.5,929.6,796.7,941.1L796.7,941.1z"/>
	<path fill=" #8d8d8d" d="M991.7,1057.5c-0.9-2.1-2.9-6.7-4.2-9.5c-2.5,3-6,7.4-8.7,10.6c-20.9,25.4-51.5,51.9-85,57.5
		c-3.8,0.5-7.7,0.8-11.5,0.7c11,7.7,24.1,9.4,37.1,7.6c31.6-5.2,60.7-31.1,80.3-54.9C995.7,1066.3,993.3,1061.1,991.7,1057.5
		L991.7,1057.5z"/>
	<path fill=" #8d8d8d" d="M830,1048.8c4.1-28.1,17.3-55.9,26.7-82.7c2.9-8.6,5.7-16.6,8.3-24.1c-17.7,32.9-34.4,66.2-54,97.9
		c-18.8,30.5-38.8,60.6-66.9,83.3c-11.5,9.3-22.4,15.7-32.5,19.3c-0.4,4.2,1.1,8.7,5.5,10.3c3.3,1.3,7.3,0.9,10.8,0.5
		c11.3-2.1,24.2-9,38.2-20.3c26.6-21.5,45.5-49.7,63.4-78.4C829.5,1052.8,829.7,1050.8,830,1048.8L830,1048.8z"/>
	<path fill=" #8d8d8d" d="M1052.6,889c-1.3-9.2-3.8-17.9-7.3-25.8c-2.7-6.1-6.3-10.1-10.8-11.8c-2.1-0.8-4.4-1.1-6.6-0.9
		c2.5,6.8,4.3,14.1,5.4,21.7c3.2,23.3,1.5,50-5,79.1c-5.5,24.5-13.4,49.1-25.2,71.3l27.1,54.4c1.1,2.5,3.9,3.6,6.2,2.4
		c2.2-1,2.8-3.2,2.4-5.5c-0.1-0.7-0.2-1.2-4.5-9.1c-2.6-4.7-6.9-13.7-12.8-26.9c11.2-20.7,20-45.1,26.2-72.7
		C1054.1,937.2,1055.7,911.5,1052.6,889L1052.6,889z"/>
	<path fill=" #8d8d8d" d="M928,878.8c0.6,5.4,0.2,11.5-1,17.9c-5.6,28.7-19.1,56.9-28.6,84.6c-9.1,27.9-22.6,55.7-28.3,84.4
		c-2.6,13.5,2.8,28.2,18.9,26.1c-0.5-3.8-0.4-7.8,0.4-11.8c8-40.4,27.2-83.7,41.6-121.9c5.8-15.3,12.1-31,15.3-47.1
		c2.4-12.4,1.1-37.3-16.4-37.8c-1,0-1.9,0.1-2.9,0.3C927.4,875.2,927.8,877,928,878.8L928,878.8z"/>
	<path fill=" #8d8d8d" d="M998.2,928.9c-3.3,22.2-8,43.1-13.8,62.2c-8.8-32.8-9.6-69-3.5-102.3c5.7-31.1,12.3-37.9,15.5-39
		c2.5,1.8,3.2,9.1,3.5,11.4C1002.6,880.4,1002,903.2,998.2,928.9L998.2,928.9z M1026,874.3c-1.5-10.3-5.3-30.4-16.2-36.7
		c-6.5-3.7-13.7-1.5-19.3,3c-6.2,5-12.1,13.9-18,26.8c-8.9,19.6-10.6,51-5.1,93.4c2.5,16.1,6.2,32.5,11.5,47.9
		c-10.7,29.3-30.6,59.2-56.3,77.1c-12,8.4-37.5,22.3-51.5,10.1c-8.4-7.2-10.5-20.5-8.4-30.9c3.1-15.5,9.2-30.8,14.7-45.6
		c9.5-25.2,17.4-51,26.9-76.2c3.9-10.4,7.2-19.5,9.8-27.1c3.8-11.2,7.7-23.8,6.4-35.8c-1.2-9-6-20.9-16.3-22
		c-7.8-0.8-13.1,5.6-17.1,11.4c-6.5,8.5-14,20.8-22.5,36.6c-19.3,36.1-38.3,72.3-58.3,108c-18.6,33.3-41.1,69.4-70.7,94
		c-14.1,11.7-19.7,13.8-21.7,14.1c-0.8,0.1-1.6,0.1-2.3-0.4c0.5-1.4,2.6-5.4,10.1-16.3c23.5-34.3,48-71.5,61.8-110.9
		c6.4-18.1,8.3-35.5,5.8-51.7c-8.3-42.9-48.8-62.9-89.2-62.9c-35.8,0-72.9,13.8-98.9,38.7c-20.7,19.8-29.2,45.9-25.4,77.7
		c5.7,34.6,26,63.5,51.1,87.1c8.8,7.1,15.6,12.6,20.2,16.3c3,2.4,10.4,9.4,14.8,3.7c2.6-4-0.4-6.8-3.5-8.9
		c-3.7-2.5-8.2-5.7-11.5-8.4c-12.5-9.9-23.2-23.3-30.7-36.8c-14.1-25.7-23.8-60-15.1-89c6.6-22.2,22-43.6,41.9-55.7
		c15.8-9.5,36-14.1,54.4-14.1c30.3,0,51.8,17.4,56.8,47.9c3.2,29.4-1.9,60.4-15.2,92.3c-12.9,31-28.2,62.3-50.4,87.8
		c-3.7,4.2-5.8,11.3-2.3,16.3c4.8,7,17.2,3.4,23.7,1c27.8-10.4,51.6-36.7,68.6-59.9c17.5-25,33.6-51,48.2-77.9
		c15-27.7,29.5-55.8,44.7-83.4c9.4-17,16.5-28.9,21-35.6c3-4.3,4.9-6.6,6-7.8c-0.3,0.9-0.7,2.2-1.3,4c-5.8,16.5-11.9,32.8-17.9,49.2
		c-9.5,25.8-18,52-27.5,77.8c-5.7,15.7-12.2,31.8-14.6,48.4c-1,6.9-1.1,13.7,0,20.1c2.5,14.1,8.8,24.7,18.9,31.5
		c10.9,7.3,23.9,8.9,36.5,7.1c12.8-2.1,27.3-8.8,43.1-19.8c21.4-14.8,38.1-35,53.2-56c4,9.2,7.1,16.4,9.5,21.5
		c2.2,4.9,4,7.8,5.8,9.2c3.7,3,8.7-0.6,8-5.1c-0.1-0.7-0.2-1.2-4.5-9.1c-2.6-4.7-6.9-13.7-12.8-26.9
		C1018.3,980.6,1032.7,923,1026,874.3L1026,874.3z"/>
	<path fill=" #8d8d8d" d="M1084.5,1002.3c-9.2,21-14.9,38.9-16.7,52.8c15.5-18.8,27.9-40,39.5-61.4c7.1-13.2,13.2-26,18.1-38.1
		C1105.7,965.1,1093.1,982.6,1084.5,1002.3L1084.5,1002.3z"/>
	<path fill=" #8d8d8d" d="M1107.2,1052.4c-0.4-2.8-0.6-5.8-0.5-9c-7.1,11.1-14.8,21.9-23.9,31.6c-6,6.5-12.6,11-19.5,13.2
		c0.2,0.3,0.3,0.6,0.5,0.8c3,4.3,7.2,6.6,12.5,6.7c15.4,0.3,28.2-18.5,36.1-29.3C1110,1062.7,1108.2,1058.1,1107.2,1052.4
		L1107.2,1052.4z"/>
	<path fill=" #8d8d8d" d="M1191.9,942.7l-17.9,2.8c-5.7,20.4-11.7,40.7-17.1,61.2c-2.4,9.3-4.6,17.8-6.5,25.4
		c9.5-7.8,11.8-29.7,21.8-30.7c1.1-0.1,2.2-0.1,3.3,0C1180.8,981.9,1186.6,962.4,1191.9,942.7L1191.9,942.7z"/>
	<path fill=" #8d8d8d" d="M1071.3,1062.6c-5.2,6.2-8.8,8.4-10.8,9.1c-1.1-2.9-0.8-6.8-0.7-9.8c0.5-15.7,6.5-36.7,17.9-62.5
		c11.4-25.9,27.2-43.4,47-52.3c4.1-1.9,9-4.1,13.6-4.1c-1.5,4.2-3.1,8.5-4.8,12.9C1118.5,993.3,1097.3,1031.8,1071.3,1062.6
		L1071.3,1062.6z M1158.5,1050.8c4.8-6.7,9.3-14,13.4-21.8c4.6-8.7,6-12.5,6.3-15c0.3-2-0.4-4-2.5-4.8c-1.6-0.6-3.1-0.6-4.2,0.8
		c-3.7,4.4-9.8,21.4-19.9,33.6c-2.7,3.7-5.8,7.4-9.1,11.1c-2.5,2.7-4,4-4.9,4.7c-0.2-2.3,0.3-7.4,3-18.6c2.4-10.1,5.5-22.2,9.1-35.9
		c3.5-13.3,7.2-26.7,11-39.7c3.5-12,6.9-24,10.1-36.1l-25.1,3.9c-15.6-2.2-31,3.4-44.7,10.6c-17.5,9.2-32,22.8-43.1,40.7
		c-16.7,27-23.8,52.1-21.1,74.5c1.3,9.3,5.5,21,15.9,23c9.5,1.8,18.7-5.3,24.8-11.8c12.2-13.1,22-28.2,31-43.5
		c4.2-7.3,8.2-14.4,11.9-21.3c2.1-4,4.2-8,6.2-11.9c-4,13.4-8.8,26.8-11.2,40.6c-1.8,10.4-2.1,25.5,7.2,32.9
		c3.7,2.9,8.2,4.5,12.9,3.8C1144.6,1068.1,1153,1058.3,1158.5,1050.8L1158.5,1050.8z"/>
	<path fill=" #8d8d8d" d="M1323.1,951.7c-5.7,19.9-12.9,39.2-19.4,58.8c8.2-7.7,10.7-25.1,19.9-27.5c2.3-0.6,5-0.4,7.2,0.5
		c4.5-13.7,11.3-30.5,10.2-45c-1.2-7.8-6.1-17.1-14.6-18.7C1329.3,930.1,1326,941.7,1323.1,951.7L1323.1,951.7z"/>
	<path fill=" #8d8d8d" d="M1280.4,947.3c-10.6,14-20.1,28.7-29,43.9c-10.1,17-20.3,39.1-30.3,65.7l-0.6,1.6c-0.9,2.5-3.2,4.3-5.8,4.8
		l-4.1,0.6c-0.8,3.3-1.6,6.6-2.4,9.8l26.5-4.2c7.6-20.2,16.1-40.3,26.4-59.3C1264.8,988.6,1273.2,967.9,1280.4,947.3L1280.4,947.3z"
		/>
	<path fill=" #8d8d8d" d="M1275.6,828.3l-28.5,122.9c7.4-11.1,15.1-21.8,24-31.7l23.3-100.4C1288.1,822.1,1281.9,825.3,1275.6,828.3
		L1275.6,828.3z"/>
	<path fill=" #8d8d8d" d="M1322.5,1012.6c6.9-11.5,8.1-15.6,8.3-17.8c0.5-4.1-4.7-6.2-7.6-3.2c-1.3,1.4-2.8,3.9-5.1,8.7
		c-3.3,7.1-17.4,33.5-26.2,34.5c-6.4-0.1,12.1-48.9,13-51.3c4.2-12,7.9-23.4,10.9-34c3.7-12.9,7.5-26.9-1.9-38.2
		c-9.7-11.8-21.7-2.6-30,5.4c-23,22.1-39.8,51.8-55,79.5l44.3-190.9c-10.8,5.2-21.4,10.8-32.5,15.2c-17.1,80-34.4,160-53.8,239.4
		l26.5-4.2c8.8-23.4,18.8-46.9,31.5-68.4c12.7-21.5,26.8-44.8,44.8-62.4c3.9-3.9,6.6-5.9,8.2-7c-0.6,2.5-1.8,6.8-4.3,14.1
		c-7.7,22.3-16.1,44.3-22.4,67c-3.7,13.4-7.9,31.7,5.5,41.6c3.8,2.8,7.7,4.3,11.8,4.4c0.1,0,0.2,0,0.4,0c5.5,0,10.8-3,14.7-6.7
		C1311.6,1031,1316.9,1021.8,1322.5,1012.6L1322.5,1012.6z"/>
	<path fill=" #8d8d8d" d="M1420.8,989.8c-1.6,2.8-3.3,5.9-5.3,9.3c-11.8,20.4-23.6,32.8-36,37.9c3.6,4.8,8.2,7.4,13.8,7.5
		c1.9,0,3.4-0.2,5.1-0.9c10.7-4.6,21.1-16,31.9-34.6l0.5-0.8C1425.6,1003.3,1422.3,997.1,1420.8,989.8L1420.8,989.8z"/>
	<path fill=" #8d8d8d" d="M1418.1,838.7c-0.3,7-1.4,14.1-2.7,21c-8.2,41.6-20.3,82.5-30.8,123.6c-2.1,8.1-4,16.3-4.7,24.6
		c4-4.2,9.1-11.1,15.3-22.4c4.6-8.5,8.1-14.7,10.7-19.3c8.3-32.6,18-65,24-98.1c2-10.8,2.6-21.9,0.8-32.7c-1-5.8-5.1-22.9-12.1-27.1
		c-1.6-1-3.3-1.2-5.1-0.4C1416.8,817.7,1418.5,828.3,1418.1,838.7L1418.1,838.7z"/>
	<path fill=" #8d8d8d" d="M1463.3,1001.1c2,0,3.7-0.2,5.7-0.8c2.1-5,2.8-10.9,0.2-15.8c-2.4-4.5-6.9-8-12.1-8.2
		c0.1,3.9-0.4,7.6-1.5,11c-0.9,2.8-2.9,5.4-3.5,8.3C1454.3,999.6,1459.1,1001.1,1463.3,1001.1L1463.3,1001.1z"/>
	<path fill=" #8d8d8d" d="M1514.1,900.6c-0.6,8.4-4.3,17.6-11.1,22.2c4.6,3.5,10.2,7.4,11.1,8c2.1,1.2,4.6,0.6,6.3-0.8
		c1.7-1.3,3.3-3.5,4.8-6.6c3.3-6.4,3.6-13.9,0.4-20.4c-2.5-4.9-6.7-8.6-12.2-10.3C1514.1,895.5,1514.3,897.6,1514.1,900.6
		L1514.1,900.6z"/>
	<path fill=" #8d8d8d" d="M1483.3,913.8c-0.2-2.5-0.1-5.2,0.5-8.2c0.3-2,0.2-4-0.7-5.7c-3.4,2.6-6.4,5.7-8.9,9.2
		c4.1,7.6,10.4,13.7,16.2,19.9C1487.6,924.9,1483.7,918.9,1483.3,913.8L1483.3,913.8z"/>
	<path fill=" #8d8d8d" d="M1518.4,963c-4.8-6.8-10.3-12.9-15.9-19.1c13.3,18.6,14.4,38.6,1.8,58.6c-9.9,15.6-28.3,24.1-46.4,23.8
		c6,3.9,13,6,20.9,6.2c15.5,0.5,32-7,40.3-20.3C1529.4,996,1529.3,978.6,1518.4,963L1518.4,963z"/>
	<path fill=" #8d8d8d" d="M1423,971.6c-2.5,4.5-3.3,10.3-2.3,17.2c1.7,9.9,6.8,17.9,15.1,23.7c9.1,6.3,20,7.7,30.7,6.3
		c14.5-3,25.1-9.7,31.5-19.9c6.4-10.1,8.9-20.2,7.4-30.2c-4.1-20.9-22.1-34.3-34.4-50.4c-5-6.6-9.4-15.6-3.2-22.8
		c4.4-5.2,13.4-8.2,18.9-2.8c4,3.9,5.3,9.2,4.4,14.6c-0.4,2.3-0.6,4.3-0.4,6.2c0.6,3.5,2.9,5,6.1,4.4c2.6-0.8,4.9-3.3,7.3-7.9
		c2.2-4.3,3-8.8,2.5-13.6c-0.9-5.8-3.7-10.6-8.2-14.1c-5.3-4.1-12.1-4.5-18.6-3.6c-21.1,3.8-36.2,23-33.5,44.5
		c3.5,13.4,10.9,25,22,34.5c11.2,9.7,27.5,27.2,15.1,42.3c-4.9,6-12.5,8.9-20,8.9c-7.2,0-17.4-4-18.8-12.2c-0.1-2.2,0.7-4.8,2.4-7.8
		c4.1-7.5,4.1-17-2.9-22.8C1436.6,960.1,1427.6,963.3,1423,971.6L1423,971.6z"/>
	<path fill=" #8d8d8d" d="M1778.3,932.3c12.5-24.7,17.4-49.2,14.6-73c-1.6-9.6-7-28.9-20.3-27c-11.2,2.1-11.8,15.6-10.4,24.5
		c1.6,10.5,6.5,20.4,13,28.7c-2,16.2-7.2,33.4-15.3,50.9c-8,17.4-18.5,27.9-30.8,31.1c-26.6,4.2-16.2-48.2-13.2-59.9
		c5.2-20.8,16.1-47.2,34.9-59.7c6-4,8.1-6.3,7.9-9.1c-2.4-15.2-32.9,9.4-36.3,12.1c-16.1,12.8-27.3,30.8-33.3,50.5
		c-3.8,12.4-4.7,25.9-2.7,40c3.1,18.5,12.9,36.3,33.6,36.8c0.3,0,0.6,0,1,0C1746.9,978.1,1767.8,953.2,1778.3,932.3L1778.3,932.3z"
		/>
	<path fill=" #8d8d8d" d="M1820.1,885.7c0.4,2.4,1.8,3.4,3.9,3.6c3.6,0.1,5.4-2.9,6-6c1.9-9.5,3.6-17.9,5.1-25.2
		c-2.6,3.5-5.1,7.1-7.4,10.8C1821.2,879.2,1820.2,883.1,1820.1,885.7L1820.1,885.7z"/>
	<path fill=" #8d8d8d" d="M1965,844.3c-1.4-8.4-6.9-17.9-15.3-20.9c2.6,7.6,2.4,15.6,1.8,23.5c-1.2,15.8-5.9,34.5-14.1,55.9
		c-9.9,25.9-24.3,43.7-42.7,53.1c-12.3,6.3-22.4,6.8-36.3,3.6c-2.2,7.9-4.2,16.8-6,26.5c-3.6,19.5-4.8,39.4-6.3,59.1
		c-0.6,5.3-0.8,9.9-0.5,13.7c0.4,5.3-0.6,9-2,11.8c1.9,4.2,4.1,10.1,8.2,12.5c2.1,1.2,4,0.8,5.6-1.2c1.6-1.8,2.2-4.8,1.9-8.9
		c-0.3-4.3-0.1-9.3,0.5-15.1c1.6-25.4,3.8-45.4,6.4-59.7c2.4-12.9,5.1-24.5,8.2-34.4c12.8,4.7,26.4,5.1,38.8-1.4
		c16.4-8.6,29.2-24.9,38.3-48.7C1962.6,885.3,1967.1,861.9,1965,844.3L1965,844.3z"/>
	<path fill=" #8d8d8d" d="M1883.6,935c7.7-22.4,15.4-41.4,23.2-56.8c3.2-17,4.8-31.1,4.8-41.9c-3.3,4.3-7.8,10.9-13.6,21
		c-10.9,19-21.9,45.6-32.7,79C1871,938.1,1878.3,938.3,1883.6,935L1883.6,935z"/>
	<path fill=" #8d8d8d" d="M1790.5,1028.9l-0.8,14.7c-0.1,1.3-1.1,2.4-2.4,2.7l-5,0.8L635.7,1211.1l1.8,12.3l1162.7-165.6l1.7-30.6
		L1790.5,1028.9L1790.5,1028.9z"/>
	<polygon fill=" #8d8d8d" points="626.5,1205.8 1784.1,1040.9 1785.5,1016.1 625.5,1199 626.5,1205.8 	"/>
	<path fill=" #8d8d8d" d="M1884.1,1003l-3,25.6c23-5.2,52.5-11.8,74.3-20.5c5.4-2.2,5-4.4,4.8-6.1c-0.5-4.6-4.8-5.5-12.8-4.9
		C1927.1,998.6,1904.8,1001.1,1884.1,1003L1884.1,1003z"/>
	<path fill=" #8d8d8d" d="M1069.3,1249.8l7.2-0.9c2.7-0.4,4.8-1.3,6.3-2.7c1.5-1.4,2.3-3.2,2.4-5.4c0-4.3-2.5-6.2-7.5-5.5l-7.8,1
		L1069.3,1249.8L1069.3,1249.8z M1069,1257.7l-0.6,14.5l8.4-1.1c2.6-0.3,4.7-1.3,6.3-2.8c1.6-1.5,2.4-3.4,2.5-5.6
		c0-2.2-0.5-3.9-1.6-5c-1.1-1.1-2.7-1.6-4.9-1.4L1069,1257.7L1069,1257.7z M1057.4,1282.5l2.3-53.8l16.4-2.1
		c6.1-0.8,10.8-0.1,14.2,1.9c3.4,2.1,5.2,5.3,5.5,9.8c0.3,5.4-2.2,9.7-7.7,12.9c2.2,0.5,4,1.6,5.4,3.4c1.4,1.8,2.2,4.1,2.4,6.8
		c0.3,5-1.1,9.1-4.3,12.3c-3.2,3.2-7.9,5.2-14,6L1057.4,1282.5L1057.4,1282.5z"/>
	<polygon fill=" #8d8d8d" points="1135.4,1249.1 1115.2,1251.7 1114.6,1266.2 1138.3,1263.1 1137.9,1272 1103.6,1276.5 
		1105.9,1222.7 1140.2,1218.2 1139.7,1227.2 1116.1,1230.3 1115.6,1243.1 1135.8,1240.5 1135.4,1249.1 	"/>
	<path fill=" #8d8d8d" d="M1171.5,1253.3c0.1-2.9-1.6-4.9-5.1-6l-7.3-1.9c-8.6-2.5-13.1-7-13.5-13.4c-0.2-3,0.4-5.7,1.9-8.2
		c1.5-2.5,3.7-4.6,6.7-6.3c3-1.7,6.4-2.8,10.1-3.2c5.1-0.6,9.4,0.4,12.9,2.9c3.5,2.5,5.6,6.2,6.2,11.2l-10.6,1.4
		c-0.2-2.4-1-4.2-2.3-5.4c-1.3-1.2-3.2-1.6-5.7-1.4c-2.4,0.3-4.4,1.1-6.1,2.5c-1.6,1.4-2.5,3.1-2.6,5.1c-0.1,2.7,1.9,4.6,6.1,5.6
		l5,1.2l2.9,0.9c7.6,2.6,11.5,7.1,11.9,13.5c0.2,3.1-0.5,5.9-1.9,8.4c-1.5,2.5-3.7,4.5-6.6,6.1c-2.9,1.6-6.2,2.6-9.9,3
		c-3.7,0.4-7.2,0.1-10.3-1c-3.1-1.1-5.6-2.9-7.5-5.5c-1.8-2.3-2.8-5.1-3.1-8.4l10.6-1.3c0.4,5.8,3.6,8.3,9.6,7.6
		c2.6-0.3,4.6-1.2,6.1-2.5C1170.6,1256.9,1171.4,1255.3,1171.5,1253.3L1171.5,1253.3z"/>
	<polygon fill=" #8d8d8d" points="1229.3,1215.5 1213.6,1217.6 1211.8,1262.4 1201.2,1263.8 1203.1,1218.9 1187.6,1220.9 1188,1212 
		1229.7,1206.5 1229.3,1215.5 	"/>
	<path fill=" #8d8d8d" d="M1290.4,1234.3c0.1,3.7-0.8,7.1-2.5,10.1c-1.7,3.1-4.1,5.6-7.3,7.5c-3.1,1.9-6.6,3.1-10.5,3.5
		c-3.5,0.4-6.6,0-9.4-1.2c-2.8-1.2-5.1-3.1-7-5.9c-1.9-2.7-3.1-5.9-3.8-9.7c-0.6-2.9-0.7-6.7-0.5-11.2c0.2-4.5,1.1-8.6,2.7-12.3
		c1.6-3.7,3.6-6.7,6.1-9.1c3.5-3.3,7.8-5.2,12.8-5.8c5.5-0.6,10,0.5,13.6,3.4c3.6,2.9,6,7.2,7,12.9l-10.6,1.3
		c-0.4-3.3-1.4-5.7-2.9-7c-1.5-1.4-3.7-1.9-6.5-1.7c-3.6,0.4-6.4,2-8.4,5c-2,3-3,7.2-3.1,12.4c-0.1,5.1,0,9,0.5,11.4
		c0.5,3.2,1.6,5.4,3.1,6.7c1.5,1.3,3.4,1.9,5.8,1.7c3.2-0.3,5.7-1.4,7.5-3.3c1.7-1.9,2.7-4.4,2.9-7.6L1290.4,1234.3L1290.4,1234.3z"
		/>
	<polygon fill=" #8d8d8d" points="1308.1,1241 1330.4,1238.1 1330.1,1247 1297.1,1251.3 1299.4,1197.4 1310,1196.1 1308.1,1241 	"/>
	<polygon fill=" #8d8d8d" points="1347.7,1244.7 1337.1,1246.1 1339.3,1192.2 1349.9,1190.9 1347.7,1244.7 	"/>
	<path fill=" #8d8d8d" d="M1369.4,1214l8.8-1.1c2.8-0.4,5.1-1.4,6.8-3.1c1.7-1.7,2.6-3.8,2.6-6.4c0-2.6-0.6-4.5-2-5.9
		c-1.4-1.3-3.2-1.9-5.5-1.7l-10,1.2L1369.4,1214L1369.4,1214z M1369.1,1223l-0.8,19l-10.6,1.4l2.3-53.8l18.4-2.4
		c5.7-0.7,10.4,0.3,14,3c3.7,2.7,5.6,6.7,5.9,11.8c0.3,5.2-1.3,9.6-4.8,13.2c-3.5,3.6-8.3,5.8-14.4,6.6L1369.1,1223L1369.1,1223z"/>
	<path fill=" #8d8d8d" d="M1416.1,1208l8.8-1.1c2.8-0.4,5.1-1.4,6.8-3.1c1.7-1.7,2.5-3.9,2.6-6.4c0-2.5-0.6-4.5-2-5.9
		c-1.4-1.3-3.2-1.9-5.5-1.7l-10,1.3L1416.1,1208L1416.1,1208z M1415.8,1217l-0.8,19l-10.6,1.4l2.3-53.8l18.5-2.4
		c5.7-0.7,10.4,0.3,14,3c3.7,2.7,5.6,6.6,5.9,11.8c0.3,5.2-1.3,9.6-4.8,13.2c-3.5,3.6-8.3,5.8-14.4,6.6L1415.8,1217L1415.8,1217z"/>
	<polygon fill=" #8d8d8d" points="1482.8,1203.8 1462.6,1206.4 1462,1220.9 1485.7,1217.8 1485.3,1226.7 1451,1231.2 1453.3,1177.4 
		1487.5,1172.9 1487.1,1181.9 1463.5,1185 1463,1197.8 1483.2,1195.2 1482.8,1203.8 	"/>
	<path fill=" #8d8d8d" d="M1503.6,1195.8l7.9-1c2.8-0.4,5-1.5,6.6-3.2c1.6-1.7,2.5-3.8,2.5-6.4c0-2.4-0.6-4.2-1.9-5.3
		c-1.2-1.2-3.1-1.7-5.4-1.5l-9,1.1L1503.6,1195.8L1503.6,1195.8z M1511.8,1203.7l-8.6,1.1l-0.8,19.7l-10.6,1.4l2.3-53.8l17.4-2.2
		c5.8-0.8,10.5,0,14,2.4c3.5,2.3,5.4,6,5.7,10.9c0.4,7.3-2.8,12.8-9.6,16.6l10.2,20.4l0.1,0.6l-11.3,1.5L1511.8,1203.7
		L1511.8,1203.7z"/>
	<path fill=" #8d8d8d" d="M1565.1,1202c0.1-2.9-1.5-4.9-5.1-6l-7.3-1.9c-8.6-2.6-13.1-7-13.5-13.4c-0.2-3,0.4-5.7,1.9-8.2
		c1.5-2.5,3.7-4.6,6.7-6.3c3-1.7,6.4-2.8,10.1-3.2c5.1-0.6,9.4,0.4,12.9,2.9c3.5,2.5,5.6,6.2,6.2,11.2l-10.6,1.4
		c-0.2-2.4-1-4.2-2.3-5.4c-1.3-1.2-3.2-1.6-5.7-1.3c-2.4,0.3-4.4,1.1-6.1,2.5c-1.6,1.4-2.5,3.1-2.6,5.1c-0.1,2.7,1.9,4.5,6.1,5.6
		l5,1.2l2.9,0.9c7.6,2.6,11.5,7.1,11.9,13.5c0.2,3.1-0.5,5.9-1.9,8.4c-1.5,2.5-3.7,4.5-6.6,6.1c-2.9,1.6-6.2,2.6-9.9,3
		c-3.7,0.4-7.2,0.1-10.3-1c-3.1-1.1-5.6-2.9-7.5-5.5c-1.8-2.3-2.8-5.1-3.1-8.4l10.6-1.4c0.4,5.8,3.6,8.3,9.6,7.6
		c2.6-0.3,4.6-1.2,6.1-2.5C1564.2,1205.6,1565,1204,1565.1,1202L1565.1,1202z"/>
	<path fill=" #8d8d8d" d="M1088.3,1402.9c-2,4.2-0.2,9.3,4.1,11.2c1.2,0.5,2.4,0.8,3.6,0.8c3.2,0,6.3-1.8,7.7-4.9
		c2-4.2,0.1-9.2-4.1-11.2C1095.3,1396.8,1090.3,1398.6,1088.3,1402.9L1088.3,1402.9z"/>
	<path fill=" #8d8d8d" d="M1052.9,610.1c4-2.4,5.2-7.7,2.8-11.6c-2.5-4-7.7-5.2-11.7-2.8c-3.9,2.5-5.2,7.7-2.8,11.7
		c1.6,2.5,4.4,4,7.2,4C1049.9,611.4,1051.5,610.9,1052.9,610.1L1052.9,610.1z"/>
	<path fill=" #8d8d8d" d="M1069.9,1383.6c-4.1-2.3-9.2-0.8-11.6,3.3c-2.3,4.1-0.8,9.2,3.3,11.5c1.3,0.7,2.7,1.1,4.1,1.1
		c3,0,5.9-1.6,7.4-4.3C1075.4,1391,1074,1385.9,1069.9,1383.6L1069.9,1383.6z"/>
	<path fill=" #8d8d8d" d="M1032.1,1380.4c1.5,1,3.1,1.4,4.7,1.4c2.8,0,5.4-1.3,7.1-3.8c2.6-3.9,1.5-9.1-2.4-11.7v-0.1
		c-3.9-2.5-9.1-1.5-11.7,2.4C1027.1,1372.5,1028.2,1377.8,1032.1,1380.4L1032.1,1380.4z"/>
	<path fill=" #8d8d8d" d="M999,649.2c3.5-3.1,4-8.3,1-12c-3-3.6-8.3-4-12-1c-3.5,3-4,8.3-1,11.9c1.6,2,4.1,3,6.4,3
		C995.5,651.2,997.4,650.5,999,649.2L999,649.2z"/>
	<path fill=" #8d8d8d" d="M1025.2,628.6c3.8-2.8,4.6-8,1.9-11.8c-2.8-3.8-8.1-4.6-11.8-1.9c-3.8,2.7-4.6,8-1.9,11.8
		c1.6,2.3,4.2,3.5,6.9,3.5C1022,630.3,1023.7,629.7,1025.2,628.6L1025.2,628.6z"/>
	<path fill=" #8d8d8d" d="M983.1,1340.3c2.3,0,4.6-1,6.3-2.8c3.1-3.5,2.8-8.8-0.6-12c-3.5-3.2-8.8-2.8-12,0.6
		c-3.2,3.5-2.9,8.8,0.6,11.9C979,1339.6,981.1,1340.3,983.1,1340.3L983.1,1340.3z"/>
	<path fill=" #8d8d8d" d="M1004,1360.2c1.5,1.2,3.3,1.7,5.1,1.7c2.5,0,5.1-1.1,6.7-3.3c2.9-3.7,2.2-9-1.5-11.9h-0.1
		c-3.7-2.8-9-2.1-11.8,1.5C999.6,1352.1,1000.3,1357.4,1004,1360.2L1004,1360.2z"/>
	<path fill=" #8d8d8d" d="M1142.9,567.4c4.4-1.5,6.8-6.3,5.2-10.8c-1.5-4.4-6.3-6.8-10.7-5.2c-4.5,1.5-6.8,6.3-5.2,10.8
		c1.2,3.5,4.5,5.7,8,5.7C1141.1,567.9,1142,567.8,1142.9,567.4L1142.9,567.4z"/>
	<path fill=" #8d8d8d" d="M1174.8,557.9c4.5-1.2,7.2-5.8,6.1-10.4c-1.2-4.5-5.8-7.2-10.3-6c-4.6,1.2-7.3,5.8-6.1,10.3
		c1,3.8,4.5,6.3,8.2,6.3C1173.4,558.1,1174.1,558,1174.8,557.9L1174.8,557.9z"/>
	<path fill=" #8d8d8d" d="M1194.1,1430.4c-4.6-1-9,2-10,6.5c-1,4.6,1.9,9,6.5,10c0.6,0.1,1.2,0.2,1.7,0.2c3.9,0,7.4-2.7,8.3-6.7
		C1201.6,1435.9,1198.7,1431.4,1194.1,1430.4L1194.1,1430.4z"/>
	<path fill=" #8d8d8d" d="M1207.3,550.6c4.6-0.8,7.6-5.2,6.8-9.9c-0.8-4.6-5.2-7.6-9.8-6.8c-4.6,0.8-7.7,5.2-6.8,9.8
		c0.8,4.1,4.3,6.9,8.4,6.9C1206.3,550.8,1206.8,550.7,1207.3,550.6L1207.3,550.6z"/>
	<path fill=" #8d8d8d" d="M1227,1436.2c-4.6-0.6-8.9,2.7-9.5,7.3c-0.6,4.6,2.6,8.9,7.2,9.5c0.4,0.1,0.8,0.1,1.2,0.1
		c4.2,0,7.8-3.1,8.3-7.3C1234.8,1441.1,1231.6,1436.8,1227,1436.2L1227,1436.2z"/>
	<path fill=" #8d8d8d" d="M974.4,671.7c3.3-3.3,3.4-8.6,0.1-12c-3.3-3.3-8.6-3.4-12-0.1v-0.1c-3.3,3.3-3.4,8.6-0.1,12
		c1.6,1.7,3.8,2.5,6,2.5C970.6,674,972.7,673.2,974.4,671.7L974.4,671.7z"/>
	<path fill=" #8d8d8d" d="M1130.3,1411.7c-4.4-1.6-9.2,0.6-10.9,4.9c-1.7,4.4,0.6,9.2,4.9,10.9c1,0.3,2,0.5,3,0.5
		c3.4,0,6.7-2.1,7.9-5.5C1136.9,1418.2,1134.7,1413.3,1130.3,1411.7L1130.3,1411.7z"/>
	<path fill=" #8d8d8d" d="M1111.9,579.4c4.3-1.9,6.3-6.8,4.5-11.1c-1.8-4.3-6.8-6.3-11.1-4.5c-4.3,1.9-6.3,6.8-4.4,11.1
		c1.4,3.2,4.5,5.1,7.8,5.1C1109.7,580.1,1110.8,579.9,1111.9,579.4L1111.9,579.4z"/>
	<path fill=" #8d8d8d" d="M1161.9,1422.2c-4.5-1.3-9.2,1.3-10.5,5.7c-1.4,4.5,1.2,9.2,5.7,10.5c0.8,0.2,1.6,0.3,2.4,0.3
		c3.6,0,7-2.4,8.1-6C1168.9,1428.3,1166.3,1423.6,1161.9,1422.2L1161.9,1422.2z"/>
	<path fill=" #8d8d8d" d="M915.5,1264.4c1.7,0,3.4-0.5,4.9-1.6c3.8-2.6,4.7-8,2-11.8c-2.7-3.8-8-4.7-11.8-2c-3.8,2.7-4.7,7.9-2,11.8
		C910.2,1263.1,912.8,1264.4,915.5,1264.4L915.5,1264.4z"/>
	<path fill=" #8d8d8d" d="M958.7,1316.7c2.1,0,4.2-0.8,5.9-2.4c3.3-3.2,3.5-8.6,0.2-12c-3.2-3.4-8.6-3.5-12-0.2
		c-3.4,3.2-3.5,8.6-0.2,12C954.2,1315.7,956.5,1316.7,958.7,1316.7L958.7,1316.7z"/>
	<path fill=" #8d8d8d" d="M1691.8,785.2c1.3,0,2.7-0.3,3.9-1c4.1-2.2,5.7-7.3,3.5-11.4c-2.2-4.1-7.3-5.7-11.4-3.4
		c-4.1,2.2-5.7,7.3-3.5,11.5C1685.9,783.6,1688.8,785.2,1691.8,785.2L1691.8,785.2z"/>
	<path fill=" #8d8d8d" d="M882.8,781c1.2,0.7,2.7,1,4,1c3,0,5.9-1.6,7.4-4.4c2.3-4.1,0.7-9.2-3.4-11.5c-4.1-2.2-9.2-0.7-11.5,3.4
		v-0.1C877.2,773.6,878.7,778.8,882.8,781L882.8,781z"/>
	<path fill=" #8d8d8d" d="M1681.9,743c-2.5-4-7.7-5.1-11.7-2.6c-4,2.5-5.1,7.7-2.6,11.7c1.6,2.5,4.3,3.9,7.2,3.9
		c1.5,0,3.1-0.4,4.5-1.3C1683.2,752.1,1684.3,746.9,1681.9,743L1681.9,743z"/>
	<path fill=" #8d8d8d" d="M1240.3,545.8c4.7-0.5,8-4.6,7.6-9.3c-0.5-4.6-4.7-8-9.3-7.5c-4.7,0.5-8,4.7-7.6,9.3
		c0.5,4.3,4.2,7.6,8.4,7.6C1239.7,545.9,1240,545.9,1240.3,545.8L1240.3,545.8z"/>
	<path fill=" #8d8d8d" d="M936.1,1291.3c1.9,0,3.8-0.7,5.4-2c3.6-3,4.1-8.3,1.1-11.9c-3-3.6-8.3-4.1-11.9-1.1
		c-3.6,3-4.1,8.3-1.1,11.9C931.3,1290.3,933.7,1291.3,936.1,1291.3L936.1,1291.3z"/>
	<path fill=" #8d8d8d" d="M875.2,796.3c-4.2-1.9-9.2-0.1-11.2,4.2c-2,4.2-0.1,9.3,4.2,11.2c1.1,0.5,2.3,0.8,3.4,0.8
		c3.2,0,6.3-1.9,7.7-5C881.4,803.2,879.5,798.2,875.2,796.3L875.2,796.3z"/>
	<path fill=" #8d8d8d" d="M951.5,695.9c3.1-3.5,2.8-8.8-0.8-12c-3.5-3.1-8.9-2.8-11.9,0.7c-3.1,3.5-2.8,8.8,0.7,11.9
		c1.6,1.4,3.6,2.1,5.6,2.1C947.5,698.7,949.8,697.7,951.5,695.9L951.5,695.9z"/>
	<path fill=" #8d8d8d" d="M930.4,721.7c2.8-3.8,2-9.1-1.7-11.9c-3.7-2.8-9-2-11.8,1.7c-2.8,3.7-2.1,9,1.7,11.8
		c1.5,1.1,3.3,1.7,5.1,1.7C926.2,725,928.7,723.8,930.4,721.7L930.4,721.7z"/>
	<path fill=" #8d8d8d" d="M911.3,749c2.5-3.9,1.4-9.2-2.5-11.7c-3.9-2.5-9.1-1.4-11.7,2.5c-2.5,3.9-1.4,9.2,2.5,11.7
		c1.4,1,3,1.4,4.6,1.4C907,752.8,909.7,751.5,911.3,749L911.3,749z"/>
	<path fill=" #8d8d8d" d="M1081.8,593.6c4.2-2.1,5.8-7.2,3.6-11.4c-2.1-4.1-7.3-5.7-11.4-3.6c-4.2,2.2-5.7,7.3-3.6,11.4
		c1.5,2.9,4.5,4.6,7.5,4.6C1079.2,594.6,1080.6,594.3,1081.8,593.6L1081.8,593.6z"/>
	<path fill=" #8d8d8d" d="M1260.1,1439.5c-4.7-0.3-8.7,3.3-9,7.9c-0.3,4.7,3.2,8.7,7.9,9c0.2,0.1,0.3,0.1,0.5,0.1
		c4.5,0,8.2-3.4,8.5-8C1268.3,1443.8,1264.8,1439.8,1260.1,1439.5L1260.1,1439.5z"/>
	<path fill=" #8d8d8d" d="M1617.1,674.2c3.3-3.3,3.3-8.7,0-12c-3.3-3.3-8.7-3.3-12,0c-3.3,3.3-3.3,8.7,0,12c1.6,1.6,3.8,2.5,6,2.5
		C1613.3,676.7,1615.5,675.8,1617.1,674.2L1617.1,674.2z"/>
	<path fill=" #8d8d8d" d="M1625,1309.4c2.3,0,4.6-0.9,6.3-2.7c3.2-3.4,2.9-8.8-0.5-12c-3.4-3.1-8.8-2.9-12,0.5
		c-3.2,3.4-2.9,8.7,0.5,11.9C1620.9,1308.7,1623,1309.4,1625,1309.4L1625,1309.4z"/>
	<path fill=" #8d8d8d" d="M1641.8,1281.8c1.6,1.2,3.4,1.8,5.2,1.8c2.5,0,5-1.1,6.7-3.2c2.9-3.7,2.3-9-1.4-11.9
		c-3.7-2.9-9-2.2-11.9,1.4C1637.5,1273.6,1638.1,1278.9,1641.8,1281.8L1641.8,1281.8z"/>
	<path fill=" #8d8d8d" d="M1601.1,1333.6c2.1,0,4.2-0.7,5.8-2.3c3.4-3.2,3.6-8.5,0.4-12c-3.2-3.4-8.6-3.6-12-0.3
		c-3.4,3.2-3.6,8.5-0.3,12C1596.6,1332.7,1598.9,1333.6,1601.1,1333.6L1601.1,1333.6z"/>
	<path fill=" #8d8d8d" d="M1566.5,629c2.8-3.8,2-9.1-1.8-11.8c-3.8-2.8-9.1-2-11.8,1.8c-2.8,3.7-2,9,1.8,11.8c1.5,1.1,3.3,1.7,5,1.7
		C1562.3,632.5,1564.8,631.2,1566.5,629L1566.5,629z"/>
	<path fill=" #8d8d8d" d="M1575.6,1355.8c1.9,0,3.7-0.6,5.3-1.9c3.6-2.9,4.2-8.3,1.2-11.9c-2.9-3.7-8.3-4.2-11.9-1.2
		c-3.6,2.9-4.2,8.2-1.2,11.8C1570.7,1354.8,1573.1,1355.8,1575.6,1355.8L1575.6,1355.8z"/>
	<path fill=" #8d8d8d" d="M1660.5,726.3c3.8-2.8,4.6-8.1,1.7-11.8c-2.8-3.8-8.1-4.5-11.8-1.7c-3.7,2.8-4.5,8.1-1.7,11.8
		c1.7,2.2,4.2,3.4,6.8,3.4C1657.3,728,1659,727.4,1660.5,726.3L1660.5,726.3z"/>
	<path fill=" #8d8d8d" d="M1592.6,650.7c3-3.5,2.7-8.9-0.9-12c-3.5-3-8.9-2.6-11.9,0.9c-3,3.6-2.7,8.9,0.9,12c1.6,1.4,3.5,2,5.5,2
		C1588.6,653.6,1590.9,652.6,1592.6,650.7L1592.6,650.7z"/>
	<path fill=" #8d8d8d" d="M1662.4,1254.8c1.5,1,3.1,1.5,4.7,1.5c2.7,0,5.4-1.4,7-3.7c2.6-3.9,1.6-9.1-2.3-11.8
		c-3.9-2.6-9.1-1.6-11.7,2.3C1657.5,1246.9,1658.5,1252.1,1662.4,1254.8L1662.4,1254.8z"/>
	<path fill=" #8d8d8d" d="M1725.6,1134.1c3.6,0,7-2.4,8.1-6c1.4-4.5-1.2-9.2-5.6-10.6c-4.5-1.4-9.2,1.2-10.5,5.6
		c-1.4,4.5,1.1,9.2,5.6,10.5C1723.9,1134,1724.8,1134.1,1725.6,1134.1L1725.6,1134.1z"/>
	<path fill=" #8d8d8d" d="M1717.5,1149.8c-4.3-1.7-9.2,0.5-10.9,4.8v0.1c-1.7,4.3,0.5,9.2,4.8,10.9c1,0.4,2,0.6,3,0.6
		c3.4,0,6.6-2,7.9-5.4v0C1724,1156.4,1721.8,1151.5,1717.5,1149.8L1717.5,1149.8z"/>
	<path fill=" #8d8d8d" d="M1680.9,1226.3c1.4,0.7,2.8,1.1,4.2,1.1c2.9,0,5.8-1.5,7.3-4.2v-0.1c2.3-4,0.9-9.2-3.1-11.5
		c-4.1-2.4-9.3-1-11.6,3.1C1675.4,1218.8,1676.8,1224,1680.9,1226.3L1680.9,1226.3z"/>
	<path fill=" #8d8d8d" d="M1548.4,1376.2c1.7,0,3.3-0.5,4.8-1.5c3.8-2.7,4.8-7.9,2.1-11.7c-2.7-3.9-7.9-4.8-11.7-2.1
		c-3.9,2.7-4.8,7.9-2.1,11.8C1543.1,1374.9,1545.7,1376.2,1548.4,1376.2L1548.4,1376.2z"/>
	<path fill=" #8d8d8d" d="M1697.2,1196.5c1.2,0.6,2.4,0.8,3.7,0.8c3.2,0,6.1-1.8,7.6-4.8c2-4.2,0.2-9.3-3.9-11.3
		c-4.2-2-9.3-0.2-11.3,4C1691.3,1189.5,1693,1194.5,1697.2,1196.5L1697.2,1196.5z"/>
	<path fill=" #8d8d8d" d="M1639.8,699.5c3.6-3.1,3.9-8.4,0.9-12c-3-3.6-8.4-3.9-11.9-0.8c-3.5,3-3.9,8.4-0.8,11.9
		c1.6,2,4,2.9,6.4,2.9C1636.2,701.5,1638.2,700.8,1639.8,699.5L1639.8,699.5z"/>
	<path fill=" #8d8d8d" d="M1341.1,546.3c4.2,0,7.9-3.2,8.4-7.5c0.5-4.6-2.8-8.9-7.5-9.4c-4.6-0.6-8.8,2.8-9.4,7.4
		c-0.5,4.6,2.8,8.8,7.4,9.4C1340.4,546.3,1340.7,546.3,1341.1,546.3L1341.1,546.3z"/>
	<path fill=" #8d8d8d" d="M1359.8,1434.7c-4.6,0.7-7.8,5.1-7,9.7c0.7,4.1,4.3,7.1,8.3,7.1c0.5,0,0.9-0.1,1.4-0.1
		c4.6-0.7,7.7-5.1,7-9.7C1368.7,1437.1,1364.3,1434,1359.8,1434.7L1359.8,1434.7z"/>
	<path fill=" #8d8d8d" d="M1326.7,1438.7c-4.6,0.4-8.1,4.5-7.7,9.1c0.3,4.5,4.1,7.8,8.4,7.8c0.2,0,0.5,0,0.7-0.1
		c4.6-0.4,8.1-4.5,7.7-9.1C1335.4,1441.8,1331.3,1438.4,1326.7,1438.7L1326.7,1438.7z"/>
	<path fill=" #8d8d8d" d="M1374.6,551.4c3.9,0,7.5-2.9,8.3-6.9c0.9-4.6-2.1-9-6.8-9.9c-4.6-0.8-9,2.1-9.9,6.7c-0.9,4.6,2.1,9,6.7,9.9
		C1373.5,551.4,1374,551.4,1374.6,551.4L1374.6,551.4z"/>
	<path fill=" #8d8d8d" d="M1273.5,543.5c4.6-0.1,8.3-4.1,8.2-8.7c-0.2-4.7-4.1-8.3-8.7-8.2c-4.7,0.1-8.3,4-8.2,8.7
		c0.1,4.6,3.9,8.2,8.5,8.2H1273.5L1273.5,543.5z"/>
	<path fill=" #8d8d8d" d="M1307.2,543.7c4.6,0,8.3-3.6,8.5-8.1c0.2-4.7-3.4-8.6-8.1-8.8c-4.7-0.2-8.6,3.4-8.8,8.1
		c-0.2,4.6,3.4,8.6,8.1,8.8H1307.2L1307.2,543.7z"/>
	<path fill=" #8d8d8d" d="M1392.4,1428.3c-4.6,1.1-7.3,5.6-6.3,10.2c0.9,3.9,4.4,6.5,8.2,6.5c0.6,0,1.3-0.1,1.9-0.2
		c4.6-1.1,7.4-5.6,6.3-10.2C1401.5,1430,1396.9,1427.2,1392.4,1428.3L1392.4,1428.3z"/>
	<path fill=" #8d8d8d" d="M1293.4,1440.3c-4.7,0.1-8.4,3.9-8.3,8.6c0.1,4.6,3.8,8.3,8.5,8.3h0.1h0.1c4.6-0.1,8.4-3.9,8.3-8.6
		C1301.9,1444,1298.1,1440.3,1293.4,1440.3L1293.4,1440.3z"/>
	<path fill=" #8d8d8d" d="M1471.7,581.5c3.3,0,6.4-1.9,7.7-5c1.9-4.3-0.1-9.3-4.3-11.2c-4.3-1.9-9.2,0.1-11.1,4.3
		c-1.9,4.3,0.1,9.3,4.3,11.2C1469.3,581.3,1470.5,581.5,1471.7,581.5L1471.7,581.5z"/>
	<path fill=" #8d8d8d" d="M1407.7,559c3.7,0,7.2-2.5,8.2-6.3c1.2-4.5-1.5-9.1-6-10.3c-4.5-1.2-9.1,1.4-10.4,5.9
		c-1.2,4.5,1.5,9.1,6,10.4C1406.2,558.9,1406.9,559,1407.7,559L1407.7,559z"/>
	<path fill=" #8d8d8d" d="M1538.8,609.3c2.5-3.9,1.4-9.2-2.6-11.7c-3.9-2.5-9.1-1.3-11.6,2.7c-2.5,3.9-1.3,9.2,2.7,11.7
		c1.4,0.9,2.9,1.3,4.5,1.3C1534.4,613.3,1537.2,611.9,1538.8,609.3L1538.8,609.3z"/>
	<path fill=" #8d8d8d" d="M1509.7,591.8c2.2-4.1,0.6-9.3-3.5-11.5c-4.2-2.2-9.3-0.6-11.4,3.5c-2.2,4.1-0.6,9.2,3.5,11.4
		c1.2,0.7,2.6,1,3.9,1C1505.3,596.3,1508.2,594.6,1509.7,591.8L1509.7,591.8z"/>
	<path fill=" #8d8d8d" d="M1515.5,1378.8c-4.1,2.4-5.4,7.5-3,11.6c1.6,2.7,4.4,4.2,7.3,4.2c1.5,0,2.9-0.4,4.3-1.2
		c4-2.4,5.4-7.6,3-11.6C1524.7,1377.7,1519.5,1376.4,1515.5,1378.8L1515.5,1378.8z"/>
	<path fill=" #8d8d8d" d="M1486.2,1394.5c-4.2,2-5.9,7.1-3.8,11.3c1.5,3,4.5,4.7,7.6,4.7c1.2,0,2.5-0.3,3.7-0.9
		c4.2-2.1,5.9-7.2,3.8-11.3C1495.5,1394.2,1490.4,1392.5,1486.2,1394.5L1486.2,1394.5z"/>
	<path fill=" #8d8d8d" d="M1455.9,1408.1c-4.3,1.7-6.4,6.7-4.7,11c1.3,3.3,4.5,5.3,7.8,5.3c1,0,2.1-0.2,3.2-0.6
		c4.3-1.8,6.4-6.7,4.7-11C1465.1,1408.5,1460.2,1406.3,1455.9,1408.1L1455.9,1408.1z"/>
	<path fill=" #8d8d8d" d="M1424.5,1419.3c-4.5,1.4-6.9,6.2-5.5,10.7c1.2,3.6,4.5,5.9,8.1,5.9c0.9,0,1.8-0.1,2.6-0.4
		c4.5-1.4,6.9-6.1,5.5-10.6C1433.7,1420.4,1429,1417.9,1424.5,1419.3L1424.5,1419.3z"/>
	<path fill=" #8d8d8d" d="M1440.1,569c3.5,0,6.7-2.1,8-5.6c1.5-4.4-0.8-9.3-5.2-10.8c-4.4-1.6-9.2,0.7-10.8,5.2
		c-1.5,4.4,0.8,9.2,5.2,10.8C1438.2,568.9,1439.1,569,1440.1,569L1440.1,569z"/>
	<path fill=" #8d8d8d" d="M1288.5,511.5c192.7,0,359.1,114.1,435.6,278.2l21.8-6.9c-79.5-173.3-254.6-293.9-457.4-293.9
		c-229.7,0-424,154.9-483.9,365.7l29.7-18.9C899.3,647.2,1078.3,511.5,1288.5,511.5L1288.5,511.5z"/>
	<path fill=" #8d8d8d" d="M1754.9,1106.7c-51.6,209.6-241.1,365.5-466.4,365.5c-174.4,0-327.4-93.5-411.6-232.9l-24.8,2.4
		c86.9,151.1,249.9,253.1,436.4,253.1c239.1,0,439.7-167.7,490.5-391.6L1754.9,1106.7L1754.9,1106.7z"/>
	<path fill=" #8d8d8d" d="M1891.5,853.6c14.8-25.8,22.2-31.5,25.7-32.5c3.7,7.4,2.2,21.6,1.8,29.6c-1.6,29-10.4,62.6-23.9,83.5
		c-4,5.4-9.5,9.1-16.1,10.3c-8.2,1.1-15.4-0.5-23.1-3.5C1867.6,903.8,1879.5,874.4,1891.5,853.6L1891.5,853.6z M1845.1,984.6
		c2.4-12.9,5.1-24.5,8.2-34.4c4.4,1.6,9.1,2.8,13.8,3.3c12.3,1.5,22.1-1.9,32.2-9.1c13-9.3,23.4-24.1,31.1-44.2
		c11-28.6,15.5-52,13.5-69.6c-1.7-10.4-9.6-21.7-21-22c-5.2-0.1-9.3,2.2-13.5,5.2c-4.3,3.1-9.3,8.5-15.2,16.5
		c-6.6,8.8-14,22.2-22.1,40c-3.6,7.9-7.3,17.1-11.1,27.5c0.7-3.2,1.4-6.2,2.1-9.1c3.3-13.9,7.2-28,9.4-42.2
		c1.4-8.8,0.5-17.4-7.2-23.2c-7-5.3-15.6-4.1-23.1-1.2c-11.5,4.5-21.3,12.4-29.2,23.6c-10.8,15.3-13.4,21.4-14,24.8
		c-0.3,2,0.4,3.7,2.3,4.6c1.4,0.7,3.2,0.6,4.6-0.4c1.1-0.8,2.4-2.6,4.2-6.7c5.3-11.7,15-24.9,25.7-31.9c2.2-1.5,9.1-6.4,12.4-5.4
		c-0.1,1.4-0.8,5.5-3.4,17.6c-7,32.8-13.4,65.7-19,98.8c-4.6,27.7-7.3,54.5-8.3,82.5c-0.2,5.4,0,10.2,0.5,14.5
		c0.7,4,2.5,8.9,5.3,14.9c1.3,2.9,3.3,7.3,6.2,9.6c2.2,1.8,4.2,2,6.3-0.1c2.3-2.2,2.5-6.2,2.3-9.3c-0.3-4.2-0.1-9.3,0.5-15.1
		C1840.3,1018.9,1842.5,998.9,1845.1,984.6L1845.1,984.6z"/>
	<path fill=" #8d8d8d" d="M1372.2,892.2c-6.7,27.7-15.6,55.2-20.6,83.2c-2.9,16.6-3.4,34.2,6.5,47.7c8.8,12,19.4,8.4,28.7,0.7
		c7.3-6.1,14.7-15.5,22.1-28.4c13.4-23.1,16.5-30.8,17.3-34.1c0.9-3.7-3.8-7.7-6.6-3.9c-2.1,2.8-7.9,13.2-18,31.7
		c-3.1,5.7-17.5,31.9-26.8,31.5c-2-0.1-2.2-2.6-2.5-4.5c-1.7-10.7,2.3-24.3,4.9-34.6c9-35.1,18.4-70,26.7-105.2
		c2.9-12.4,6.1-25.2,6.6-37.9c0.5-11.8-1.8-24.9-7.2-35.5c-1.4-2.7-3.4-6.7-6.4-8.4c-2.4-1.4-4.9-0.9-6.8,1.2
		c-2.7,3.1-0.7,7.3-0.1,10.7c0.3,3,0,7.1-0.7,12C1385.8,843.3,1377.5,867.6,1372.2,892.2L1372.2,892.2z"/>
</g>
</svg>
